# 3ds Max Wavefront OBJ Exporter v0.99 - (c)2007 guruware
# File Created: 10.02.2024 01:41:58

mtllib jfuflkjlkj.mtl

#
# object Cylinder001
#

v  0.0000 0.0000 -0.0000
v  155.3426 0.0000 -120.9080
v  186.1845 0.0000 -63.9172
v  196.8504 0.0000 -0.0000
v  48.3239 0.0000 -190.8268
v  107.6670 0.0000 -164.7966
v  -79.0739 0.0000 -180.2703
v  -16.2558 0.0000 -196.1780
v  -173.1247 0.0000 -93.6904
v  -133.3231 0.0000 -144.8275
v  -194.1656 0.0000 32.4005
v  -194.1656 0.0000 -32.4005
v  -133.3232 0.0000 144.8275
v  -173.1247 0.0000 93.6904
v  -16.2557 0.0000 196.1781
v  -79.0739 0.0000 180.2703
v  107.6671 0.0000 164.7964
v  48.3240 0.0000 190.8268
v  186.1846 0.0000 63.9170
v  155.3427 0.0000 120.9078
v  186.1845 787.4016 -63.9172
v  196.8504 787.4016 -0.0000
v  155.3426 787.4016 -120.9080
v  107.6670 787.4016 -164.7966
v  48.3239 787.4016 -190.8268
v  -16.2558 787.4016 -196.1780
v  -79.0739 787.4016 -180.2703
v  -133.3231 787.4016 -144.8275
v  -173.1247 787.4016 -93.6904
v  -194.1656 787.4016 -32.4005
v  -194.1656 787.4016 32.4005
v  -173.1247 787.4016 93.6904
v  -133.3232 787.4016 144.8275
v  -79.0739 787.4016 180.2703
v  -16.2557 787.4016 196.1781
v  48.3240 787.4016 190.8268
v  107.6671 787.4016 164.7964
v  155.3427 787.4016 120.9078
v  186.1846 787.4016 63.9170
v  0.0000 787.4016 -0.0000
# 40 vertices

vn 0.0000 -1.0000 -0.0000
vn 0.5845 -0.6719 -0.4549
vn 0.7005 -0.6719 -0.2405
vn 0.7407 -0.6719 -0.0000
vn 0.1818 -0.6719 -0.7180
vn 0.4051 -0.6719 -0.6201
vn -0.2975 -0.6719 -0.6782
vn -0.0611 -0.6719 -0.7381
vn -0.6514 -0.6719 -0.3525
vn -0.5016 -0.6719 -0.5449
vn -0.7306 -0.6719 0.1219
vn -0.7305 -0.6719 -0.1219
vn -0.5016 -0.6719 0.5449
vn -0.6514 -0.6719 0.3525
vn -0.0612 -0.6719 0.7381
vn -0.2975 -0.6719 0.6783
vn 0.4051 -0.6719 0.6201
vn 0.1818 -0.6719 0.7180
vn 0.7005 -0.6719 0.2405
vn 0.5845 -0.6719 0.4549
vn 0.7005 0.6719 -0.2405
vn 0.7407 0.6719 -0.0000
vn 0.5845 0.6719 -0.4549
vn 0.4051 0.6719 -0.6201
vn 0.1818 0.6719 -0.7180
vn -0.0611 0.6719 -0.7381
vn -0.2975 0.6719 -0.6782
vn -0.5016 0.6719 -0.5449
vn -0.6514 0.6719 -0.3525
vn -0.7305 0.6719 -0.1219
vn -0.7306 0.6719 0.1219
vn -0.6514 0.6719 0.3525
vn -0.5016 0.6719 0.5449
vn -0.2975 0.6719 0.6783
vn -0.0612 0.6719 0.7381
vn 0.1818 0.6719 0.7180
vn 0.4051 0.6719 0.6201
vn 0.5845 0.6719 0.4549
vn 0.7005 0.6719 0.2405
vn 0.0000 1.0000 -0.0000
# 40 vertex normals

vt 0.5000 0.0000 0.0000
vt 0.7500 0.0000 1.0000
vt 0.8026 0.0000 1.0000
vt 0.8553 0.0000 1.0000
vt 0.9079 0.0000 1.0000
vt 0.9605 0.0000 1.0000
vt 0.0132 0.0000 1.0000
vt 0.0658 0.0000 1.0000
vt 0.1184 0.0000 1.0000
vt 0.1711 0.0000 1.0000
vt 0.2237 0.0000 1.0000
vt 0.2763 0.0000 1.0000
vt 0.3289 0.0000 1.0000
vt 0.3816 0.0000 1.0000
vt 0.4342 0.0000 1.0000
vt 0.4868 0.0000 1.0000
vt 0.5395 0.0000 1.0000
vt 0.5921 0.0000 1.0000
vt 0.6447 0.0000 1.0000
vt 0.6974 0.0000 1.0000
vt 0.7500 1.0000 1.0000
vt 0.8026 1.0000 1.0000
vt 0.8553 1.0000 1.0000
vt 0.9079 1.0000 1.0000
vt 0.9605 1.0000 1.0000
vt 0.0132 1.0000 1.0000
vt 0.0658 1.0000 1.0000
vt 0.1184 1.0000 1.0000
vt 0.1711 1.0000 1.0000
vt 0.2237 1.0000 1.0000
vt 0.2763 1.0000 1.0000
vt 0.3289 1.0000 1.0000
vt 0.3816 1.0000 1.0000
vt 0.4342 1.0000 1.0000
vt 0.4868 1.0000 1.0000
vt 0.5395 1.0000 1.0000
vt 0.5921 1.0000 1.0000
vt 0.6447 1.0000 1.0000
vt 0.6974 1.0000 1.0000
vt 0.5000 1.0000 0.0000
vt -0.0395 0.0000 1.0000
vt -0.0395 0.0000 1.0000
vt -0.0395 1.0000 1.0000
vt 0.9633 1.0000 0.8916
# 44 texture coords

o Cylinder001
g Cylinder001
usemtl 01___Default
s 1
f 1/1/1 2/4/2 3/3/3 4/2/4 
f 1/1/1 5/6/5 6/5/6 2/4/2 
f 1/1/1 7/8/7 8/7/8 5/41/5 
f 1/1/1 9/10/9 10/9/10 7/8/7 
f 1/1/1 11/12/11 12/11/12 9/10/9 
f 1/1/1 13/14/13 14/13/14 11/12/11 
f 1/1/1 15/16/15 16/15/16 13/14/13 
f 1/1/1 17/18/17 18/17/18 15/16/15 
f 1/1/1 19/20/19 20/19/20 17/18/17 
f 1/1/1 4/2/4 19/20/19 
s 8
f 4/2/4 3/3/3 21/22/21 22/21/22 
f 3/3/3 2/4/2 23/23/23 21/22/21 
f 2/4/2 6/5/6 24/24/24 23/23/23 
f 6/5/6 5/6/5 25/25/25 24/24/24 
f 5/42/5 8/7/8 26/26/26 25/43/25 
f 8/7/8 7/8/7 27/27/27 26/26/26 
f 7/8/7 10/9/10 28/28/28 27/27/27 
f 10/9/10 9/10/9 29/29/29 28/28/28 
f 9/10/9 12/11/12 30/30/30 29/29/29 
f 12/11/12 11/12/11 31/31/31 30/30/30 
f 11/12/11 14/13/14 32/32/32 31/31/31 
f 14/13/14 13/14/13 33/33/33 32/32/32 
f 13/14/13 16/15/16 34/34/34 33/33/33 
f 16/15/16 15/16/15 35/35/35 34/34/34 
f 15/16/15 18/17/18 36/36/36 35/35/35 
f 18/17/18 17/18/17 37/37/37 36/36/36 
f 17/18/17 20/19/20 38/38/38 37/37/37 
f 20/19/20 19/20/19 39/39/39 38/38/38 
f 19/20/19 4/2/4 22/21/22 39/39/39 
s 1
f 40/40/40 39/39/39 22/21/22 21/22/21 
f 40/40/40 21/22/21 23/23/23 24/24/24 
f 40/40/40 24/24/24 25/25/25 26/44/26 
f 40/40/40 26/26/26 27/27/27 28/28/28 
f 40/40/40 28/28/28 29/29/29 30/30/30 
f 40/40/40 30/30/30 31/31/31 32/32/32 
f 40/40/40 32/32/32 33/33/33 34/34/34 
f 40/40/40 34/34/34 35/35/35 36/36/36 
f 40/40/40 36/36/36 37/37/37 38/38/38 
f 40/40/40 38/38/38 39/39/39 
# 37 polygons - 2 triangles

